<?xml version="1.0" encoding="UTF-8" standalone="no"?>
<!-- Created with Inkscape (http://www.inkscape.org/) -->

<svg
   xmlns:ns0="http://www.iki.fi/pav/software/textext/"
   xmlns:dc="http://purl.org/dc/elements/1.1/"
   xmlns:cc="http://creativecommons.org/ns#"
   xmlns:rdf="http://www.w3.org/1999/02/22-rdf-syntax-ns#"
   xmlns:svg="http://www.w3.org/2000/svg"
   xmlns="http://www.w3.org/2000/svg"
   xmlns:sodipodi="http://sodipodi.sourceforge.net/DTD/sodipodi-0.dtd"
   xmlns:inkscape="http://www.inkscape.org/namespaces/inkscape"
   width="226.91212mm"
   height="90.705704mm"
   viewBox="0 0 226.91212 90.705703"
   version="1.1"
   id="svg8"
   inkscape:version="0.92.1 unknown"
   sodipodi:docname="lab_09_hough_space_mapping.svg">
  <sodipodi:namedview
     id="base"
     pagecolor="#ffffff"
     bordercolor="#666666"
     borderopacity="1.0"
     inkscape:pageopacity="0.0"
     inkscape:pageshadow="2"
     inkscape:zoom="0.98994949"
     inkscape:cx="530.73937"
     inkscape:cy="112.46615"
     inkscape:document-units="mm"
     inkscape:current-layer="layer1"
     showgrid="false"
     inkscape:window-width="1440"
     inkscape:window-height="876"
     inkscape:window-x="1920"
     inkscape:window-y="24"
     inkscape:window-maximized="1"
     fit-margin-top="0"
     fit-margin-left="0"
     fit-margin-right="0"
     fit-margin-bottom="0" />
  <defs
     id="defs2">
    <marker
       inkscape:stockid="Arrow1Mend"
       orient="auto"
       refY="0"
       refX="0"
       id="marker8814"
       style="overflow:visible"
       inkscape:isstock="true">
      <path
         id="path8812"
         d="M 0,0 5,-5 -12.5,0 5,5 Z"
         style="fill:#000000;fill-opacity:1;fill-rule:evenodd;stroke:#000000;stroke-width:1.00000003pt;stroke-opacity:1"
         transform="matrix(-0.4,0,0,-0.4,-4,0)"
         inkscape:connector-curvature="0" />
    </marker>
    <marker
       inkscape:isstock="true"
       style="overflow:visible"
       id="marker8772"
       refX="0"
       refY="0"
       orient="auto"
       inkscape:stockid="Arrow1Mend">
      <path
         inkscape:connector-curvature="0"
         transform="matrix(-0.4,0,0,-0.4,-4,0)"
         style="fill:#000000;fill-opacity:1;fill-rule:evenodd;stroke:#000000;stroke-width:1.00000003pt;stroke-opacity:1"
         d="M 0,0 5,-5 -12.5,0 5,5 Z"
         id="path8770" />
    </marker>
    <marker
       inkscape:stockid="Arrow1Mend"
       orient="auto"
       refY="0"
       refX="0"
       id="marker8156"
       style="overflow:visible"
       inkscape:isstock="true">
      <path
         inkscape:connector-curvature="0"
         id="path8154"
         d="M 0,0 5,-5 -12.5,0 5,5 Z"
         style="fill:#000000;fill-opacity:1;fill-rule:evenodd;stroke:#000000;stroke-width:1.00000003pt;stroke-opacity:1"
         transform="matrix(-0.4,0,0,-0.4,-4,0)" />
    </marker>
    <marker
       inkscape:stockid="Arrow1Mstart"
       orient="auto"
       refY="0"
       refX="0"
       id="marker8146"
       style="overflow:visible"
       inkscape:isstock="true">
      <path
         inkscape:connector-curvature="0"
         id="path8144"
         d="M 0,0 5,-5 -12.5,0 5,5 Z"
         style="fill:#000000;fill-opacity:1;fill-rule:evenodd;stroke:#000000;stroke-width:1.00000003pt;stroke-opacity:1"
         transform="matrix(0.4,0,0,0.4,4,0)" />
    </marker>
    <marker
       inkscape:stockid="Arrow1Mend"
       orient="auto"
       refY="0"
       refX="0"
       id="marker7215"
       style="overflow:visible"
       inkscape:isstock="true"
       inkscape:collect="always">
      <path
         id="path7213"
         d="M 0,0 5,-5 -12.5,0 5,5 Z"
         style="fill:#000000;fill-opacity:1;fill-rule:evenodd;stroke:#000000;stroke-width:1.00000003pt;stroke-opacity:1"
         transform="matrix(-0.4,0,0,-0.4,-4,0)"
         inkscape:connector-curvature="0" />
    </marker>
    <marker
       inkscape:isstock="true"
       style="overflow:visible"
       id="marker7173"
       refX="0"
       refY="0"
       orient="auto"
       inkscape:stockid="Arrow1Mend"
       inkscape:collect="always">
      <path
         inkscape:connector-curvature="0"
         transform="matrix(-0.4,0,0,-0.4,-4,0)"
         style="fill:#000000;fill-opacity:1;fill-rule:evenodd;stroke:#000000;stroke-width:1.00000003pt;stroke-opacity:1"
         d="M 0,0 5,-5 -12.5,0 5,5 Z"
         id="path7171" />
    </marker>
    <marker
       inkscape:stockid="TriangleOutM"
       orient="auto"
       refY="0"
       refX="0"
       id="TriangleOutM"
       style="overflow:visible"
       inkscape:isstock="true">
      <path
         id="path4632"
         d="M 5.77,0 -2.88,5 V -5 Z"
         style="fill:#000000;fill-opacity:1;fill-rule:evenodd;stroke:#000000;stroke-width:1.00000003pt;stroke-opacity:1"
         transform="scale(0.4)"
         inkscape:connector-curvature="0" />
    </marker>
    <marker
       inkscape:stockid="TriangleOutL"
       orient="auto"
       refY="0"
       refX="0"
       id="TriangleOutL"
       style="overflow:visible"
       inkscape:isstock="true">
      <path
         id="path4629"
         d="M 5.77,0 -2.88,5 V -5 Z"
         style="fill:#000000;fill-opacity:1;fill-rule:evenodd;stroke:#000000;stroke-width:1.00000003pt;stroke-opacity:1"
         transform="scale(0.8)"
         inkscape:connector-curvature="0" />
    </marker>
    <marker
       inkscape:stockid="Arrow2Lend"
       orient="auto"
       refY="0"
       refX="0"
       id="Arrow2Lend"
       style="overflow:visible"
       inkscape:isstock="true">
      <path
         id="path4508"
         style="fill:#000000;fill-opacity:1;fill-rule:evenodd;stroke:#000000;stroke-width:0.625;stroke-linejoin:round;stroke-opacity:1"
         d="M 8.7185878,4.0337352 -2.2072895,0.01601326 8.7185884,-4.0017078 c -1.7454984,2.3720609 -1.7354408,5.6174519 -6e-7,8.035443 z"
         transform="matrix(-1.1,0,0,-1.1,-1.1,0)"
         inkscape:connector-curvature="0" />
    </marker>
    <marker
       inkscape:isstock="true"
       style="overflow:visible"
       id="marker5728"
       refX="0"
       refY="0"
       orient="auto"
       inkscape:stockid="Arrow1Mend">
      <path
         inkscape:connector-curvature="0"
         transform="matrix(-0.4,0,0,-0.4,-4,0)"
         style="fill:#000000;fill-opacity:1;fill-rule:evenodd;stroke:#000000;stroke-width:1.00000003pt;stroke-opacity:1"
         d="M 0,0 5,-5 -12.5,0 5,5 Z"
         id="path5726" />
    </marker>
    <marker
       inkscape:stockid="Arrow1Mend"
       orient="auto"
       refY="0"
       refX="0"
       id="marker4845"
       style="overflow:visible"
       inkscape:isstock="true"
       inkscape:collect="always">
      <path
         id="path4843"
         d="M 0,0 5,-5 -12.5,0 5,5 Z"
         style="fill:#000000;fill-opacity:1;fill-rule:evenodd;stroke:#000000;stroke-width:1.00000003pt;stroke-opacity:1"
         transform="matrix(-0.4,0,0,-0.4,-4,0)"
         inkscape:connector-curvature="0" />
    </marker>
    <marker
       inkscape:stockid="Arrow1Mstart"
       orient="auto"
       refY="0"
       refX="0"
       id="marker4817"
       style="overflow:visible"
       inkscape:isstock="true">
      <path
         id="path4815"
         d="M 0,0 5,-5 -12.5,0 5,5 Z"
         style="fill:#000000;fill-opacity:1;fill-rule:evenodd;stroke:#000000;stroke-width:1.00000003pt;stroke-opacity:1"
         transform="matrix(0.4,0,0,0.4,4,0)"
         inkscape:connector-curvature="0" />
    </marker>
    <marker
       inkscape:collect="always"
       inkscape:isstock="true"
       style="overflow:visible"
       id="Arrow1Mstart"
       refX="0"
       refY="0"
       orient="auto"
       inkscape:stockid="Arrow1Mstart">
      <path
         transform="matrix(0.4,0,0,0.4,4,0)"
         style="fill:#000000;fill-opacity:1;fill-rule:evenodd;stroke:#000000;stroke-width:1.00000003pt;stroke-opacity:1"
         d="M 0,0 5,-5 -12.5,0 5,5 Z"
         id="path4493"
         inkscape:connector-curvature="0" />
    </marker>
    <marker
       inkscape:collect="always"
       inkscape:isstock="true"
       style="overflow:visible"
       id="Arrow1Mend"
       refX="0"
       refY="0"
       orient="auto"
       inkscape:stockid="Arrow1Mend">
      <path
         transform="matrix(-0.4,0,0,-0.4,-4,0)"
         style="fill:#000000;fill-opacity:1;fill-rule:evenodd;stroke:#000000;stroke-width:1.00000003pt;stroke-opacity:1"
         d="M 0,0 5,-5 -12.5,0 5,5 Z"
         id="path4496"
         inkscape:connector-curvature="0" />
    </marker>
  </defs>
  <metadata
     id="metadata5">
    <rdf:RDF>
      <cc:Work
         rdf:about="">
        <dc:format>image/svg+xml</dc:format>
        <dc:type
           rdf:resource="http://purl.org/dc/dcmitype/StillImage" />
        <dc:title></dc:title>
      </cc:Work>
    </rdf:RDF>
  </metadata>
  <g
     id="layer1"
     inkscape:groupmode="layer"
     inkscape:label="Layer 1"
     transform="translate(-3.4416056,-13.108635)">
    <path
       inkscape:connector-curvature="0"
       id="path4485"
       d="M 13.909521,20.699404 V 77.017855 H 94.418448"
       style="fill:none;stroke:#000000;stroke-width:1;stroke-linecap:butt;stroke-linejoin:miter;stroke-miterlimit:4;stroke-dasharray:none;stroke-opacity:1;marker-start:url(#Arrow1Mstart);marker-end:url(#Arrow1Mend)" />
    <path
       style="fill:none;stroke:#000000;stroke-width:1;stroke-linecap:butt;stroke-linejoin:miter;stroke-miterlimit:4;stroke-dasharray:none;stroke-opacity:1;marker-start:url(#marker4817);marker-end:url(#marker4845)"
       d="m 140.38051,20.699404 v 56.318451 h 80.50897"
       id="path4813"
       inkscape:connector-curvature="0" />
    <g
       style="font-style:normal;font-variant:normal;font-weight:normal;font-stretch:normal;letter-spacing:normal;word-spacing:normal;text-anchor:start;fill:none;fill-opacity:1;fill-rule:evenodd;stroke:#000000;stroke-linecap:butt;stroke-linejoin:miter;stroke-miterlimit:10.43299961;stroke-dasharray:none;stroke-dashoffset:0;stroke-opacity:1"
       id="g5244"
       transform="matrix(1,0,0,-1,-30.666666,742.44048)"
       xml:space="preserve"
       stroke-miterlimit="10.433"
       font-style="normal"
       font-variant="normal"
       font-weight="normal"
       font-stretch="normal"
       font-size-adjust="none"
       letter-spacing="normal"
       word-spacing="normal"
       ns0:text="$m$"
       ns0:preamble="" />    <g
       ns0:preamble=""
       ns0:text="$x$"
       word-spacing="normal"
       letter-spacing="normal"
       font-size-adjust="none"
       font-stretch="normal"
       font-weight="normal"
       font-variant="normal"
       font-style="normal"
       stroke-miterlimit="10.433"
       xml:space="preserve"
       transform="matrix(0.75,0,0,-0.75,-79.772026,577.43006)"
       id="content"
       style="font-style:normal;font-variant:normal;font-weight:normal;font-stretch:normal;letter-spacing:normal;word-spacing:normal;text-anchor:start;fill:none;fill-opacity:1;fill-rule:evenodd;stroke:#000000;stroke-linecap:butt;stroke-linejoin:miter;stroke-miterlimit:10.43299961;stroke-dasharray:none;stroke-dashoffset:0;stroke-opacity:1"><path
         id="path5424"
         d="m 226.76,660.24 0.01,0.03 v 0.03 l 0.01,0.03 0.01,0.04 0.01,0.03 0.01,0.05 0.02,0.04 0.01,0.04 0.02,0.05 0.01,0.05 0.02,0.05 0.02,0.05 0.03,0.05 0.02,0.05 0.03,0.05 0.02,0.05 0.03,0.04 0.03,0.05 0.04,0.05 0.03,0.04 0.04,0.05 0.04,0.04 0.04,0.03 0.05,0.04 0.04,0.03 0.05,0.03 0.03,0.01 0.02,0.02 0.03,0.01 0.03,0.01 0.02,0.01 h 0.03 l 0.03,0.01 0.03,0.01 h 0.03 0.03 l 0.03,0.01 h 0.04 c 0.05,0 0.29,0 0.49,-0.13 -0.28,-0.05 -0.47,-0.3 -0.47,-0.54 0,-0.16 0.11,-0.35 0.38,-0.35 0.21,0 0.53,0.18 0.53,0.58 0,0.52 -0.58,0.66 -0.92,0.66 -0.58,0 -0.93,-0.53 -1.05,-0.76 -0.25,0.66 -0.79,0.76 -1.08,0.76 -1.03,0 -1.6,-1.29 -1.6,-1.54 0,-0.1 0.1,-0.1 0.12,-0.1 0.08,0 0.11,0.02 0.13,0.11 0.34,1.06 1,1.31 1.33,1.31 0.19,0 0.54,-0.09 0.54,-0.67 0,-0.31 -0.17,-0.98 -0.54,-2.37 -0.15,-0.62 -0.5,-1.04 -0.94,-1.04 -0.06,0 -0.29,0 -0.5,0.13 0.25,0.05 0.47,0.26 0.47,0.54 0,0.27 -0.22,0.35 -0.37,0.35 -0.3,0 -0.55,-0.26 -0.55,-0.58 0,-0.46 0.5,-0.66 0.94,-0.66 0.66,0 1.01,0.7 1.04,0.76 0.12,-0.37 0.48,-0.76 1.08,-0.76 1.03,0 1.59,1.29 1.59,1.54 0,0.1 -0.09,0.1 -0.12,0.1 -0.09,0 -0.1,-0.04 -0.13,-0.11 -0.32,-1.07 -1,-1.31 -1.32,-1.31 -0.39,0 -0.55,0.32 -0.55,0.66 0,0.22 0.06,0.44 0.17,0.88 z"
         inkscape:connector-curvature="0"
         style="fill:#000000;stroke-width:0" /></g>    <g
       style="font-style:normal;font-variant:normal;font-weight:normal;font-stretch:normal;letter-spacing:normal;word-spacing:normal;text-anchor:start;fill:none;fill-opacity:1;fill-rule:evenodd;stroke:#000000;stroke-linecap:butt;stroke-linejoin:miter;stroke-miterlimit:10.43299961;stroke-dasharray:none;stroke-dashoffset:0;stroke-opacity:1"
       id="g5469"
       transform="matrix(0.75,0,0,-0.75,-161.22592,516.45131)"
       xml:space="preserve"
       stroke-miterlimit="10.433"
       font-style="normal"
       font-variant="normal"
       font-weight="normal"
       font-stretch="normal"
       font-size-adjust="none"
       letter-spacing="normal"
       word-spacing="normal"
       ns0:text="$y$"
       ns0:preamble=""><path
         style="fill:#000000;stroke-width:0"
         inkscape:connector-curvature="0"
         d="m 228.27,661.03 h 0.01 v 0.01 0.01 0 0.01 l 0.01,0.02 v 0.01 0.01 0 l 0.01,0.01 v 0.01 0.01 0.01 0 l 0.01,0.01 v 0.01 0 0.01 0 0.01 0.01 0 0.01 0.01 0.01 0.01 0.01 0 0.01 0.01 c 0,0.18 -0.13,0.27 -0.29,0.27 -0.09,0 -0.25,-0.06 -0.34,-0.21 -0.02,-0.05 -0.1,-0.36 -0.14,-0.54 -0.07,-0.26 -0.14,-0.53 -0.2,-0.8 l -0.45,-1.79 c -0.04,-0.15 -0.47,-0.85 -1.13,-0.85 -0.5,0 -0.61,0.44 -0.61,0.81 0,0.46 0.17,1.07 0.5,1.95 0.16,0.41 0.2,0.52 0.2,0.72 0,0.45 -0.31,0.82 -0.81,0.82 -0.95,0 -1.32,-1.45 -1.32,-1.54 0,-0.1 0.1,-0.1 0.12,-0.1 0.1,0 0.11,0.02 0.16,0.18 0.27,0.94 0.67,1.24 1.01,1.24 0.08,0 0.25,0 0.25,-0.32 0,-0.25 -0.1,-0.51 -0.17,-0.7 -0.4,-1.06 -0.58,-1.62 -0.58,-2.09 0,-0.89 0.63,-1.19 1.21,-1.19 0.39,0 0.73,0.17 1.01,0.45 -0.13,-0.52 -0.25,-1 -0.65,-1.53 -0.26,-0.34 -0.63,-0.63 -1.09,-0.63 -0.14,0 -0.59,0.03 -0.76,0.42 0.16,0 0.29,0 0.43,0.12 0.1,0.09 0.2,0.22 0.2,0.41 0,0.3 -0.27,0.35 -0.37,0.35 -0.23,0 -0.56,-0.17 -0.56,-0.65 0,-0.5 0.44,-0.87 1.06,-0.87 1.02,0 2.05,0.91 2.33,2.03 z"
         id="path5467" /></g>    <g
       ns0:preamble=""
       ns0:text="$b$"
       word-spacing="normal"
       letter-spacing="normal"
       font-size-adjust="none"
       font-stretch="normal"
       font-weight="normal"
       font-variant="normal"
       font-style="normal"
       stroke-miterlimit="10.433"
       xml:space="preserve"
       transform="matrix(0.75,0,0,-0.75,-34.188081,517.89881)"
       id="g5517"
       style="font-style:normal;font-variant:normal;font-weight:normal;font-stretch:normal;letter-spacing:normal;word-spacing:normal;text-anchor:start;fill:none;fill-opacity:1;fill-rule:evenodd;stroke:#000000;stroke-linecap:butt;stroke-linejoin:miter;stroke-miterlimit:10.43299961;stroke-dasharray:none;stroke-dashoffset:0;stroke-opacity:1"><path
         id="path5515"
         d="m 225.81,664.04 v 0 0 0 0 0 0.01 0 0 0.01 0 0.01 0 0.01 0 l -0.01,0.01 v 0 0.01 h -0.01 v 0.01 0 h -0.01 v 0.01 0 h -0.01 v 0 0.01 0 h -0.01 v 0 0 h -0.01 v 0.01 h -0.01 v 0 0 h -0.01 v 0 h -0.01 v 0 l -0.01,0.01 v 0 h -0.01 v 0 h -0.01 -0.01 c -0.22,0 -0.95,-0.08 -1.21,-0.1 -0.08,-0.01 -0.19,-0.02 -0.19,-0.2 0,-0.12 0.09,-0.12 0.24,-0.12 0.48,0 0.5,-0.07 0.5,-0.17 0,-0.07 -0.09,-0.41 -0.14,-0.62 l -0.82,-3.25 c -0.12,-0.49 -0.16,-0.65 -0.16,-1 0,-0.95 0.53,-1.57 1.27,-1.57 v 0.22 c -0.34,0 -0.67,0.27 -0.67,1.01 0,0.19 0,0.38 0.16,1 l 0.22,0.92 c 0.06,0.22 0.06,0.24 0.15,0.35 0.48,0.65 0.93,0.8 1.19,0.8 0.36,0 0.63,-0.3 0.63,-0.94 0,-0.59 -0.33,-1.73 -0.51,-2.11 -0.33,-0.67 -0.79,-1.03 -1.17,-1.03 v -0.22 c 1.17,0 2.4,1.49 2.4,2.92 0,0.91 -0.53,1.6 -1.33,1.6 -0.46,0 -0.86,-0.29 -1.16,-0.6 z"
         inkscape:connector-curvature="0"
         style="fill:#000000;stroke-width:0" /></g>    <g
       style="font-style:normal;font-variant:normal;font-weight:normal;font-stretch:normal;letter-spacing:normal;word-spacing:normal;text-anchor:start;fill:none;fill-opacity:1;fill-rule:evenodd;stroke:#000000;stroke-linecap:butt;stroke-linejoin:miter;stroke-miterlimit:10.43299961;stroke-dasharray:none;stroke-dashoffset:0;stroke-opacity:1"
       id="g5569"
       transform="matrix(0.75,0,0,-0.75,46.131859,577.43006)"
       xml:space="preserve"
       stroke-miterlimit="10.433"
       font-style="normal"
       font-variant="normal"
       font-weight="normal"
       font-stretch="normal"
       font-size-adjust="none"
       letter-spacing="normal"
       word-spacing="normal"
       ns0:text="$m$"
       ns0:preamble=""><path
         style="fill:#000000;stroke-width:0"
         inkscape:connector-curvature="0"
         d="m 224.31,657.82 v -0.01 l -0.01,-0.02 v -0.01 -0.02 l -0.01,-0.03 -0.01,-0.03 v -0.04 l -0.01,-0.03 -0.01,-0.03 -0.01,-0.03 v -0.02 -0.01 l -0.01,-0.02 v -0.01 -0.01 l -0.01,-0.02 v -0.01 -0.01 -0.01 -0.01 l -0.01,-0.01 v -0.01 -0.01 -0.01 0 -0.01 c 0,-0.18 0.14,-0.27 0.29,-0.27 0.12,0 0.3,0.08 0.37,0.28 0.01,0.02 0.13,0.49 0.19,0.74 l 0.22,0.9 c 0.06,0.22 0.11,0.43 0.17,0.66 0.03,0.17 0.11,0.46 0.12,0.5 0.15,0.31 0.68,1.22 1.63,1.22 0.45,0 0.54,-0.37 0.54,-0.7 0,-0.25 -0.07,-0.53 -0.15,-0.83 l -0.28,-1.15 -0.2,-0.76 c -0.04,-0.2 -0.13,-0.54 -0.13,-0.59 0,-0.18 0.14,-0.27 0.29,-0.27 0.31,0 0.37,0.25 0.45,0.57 0.14,0.56 0.5,2.01 0.59,2.4 0.03,0.13 0.56,1.33 1.65,1.33 0.43,0 0.54,-0.34 0.54,-0.7 0,-0.57 -0.42,-1.7 -0.62,-2.23 -0.09,-0.24 -0.13,-0.35 -0.13,-0.55 0,-0.47 0.35,-0.82 0.82,-0.82 0.93,0 1.3,1.46 1.3,1.54 0,0.1 -0.09,0.1 -0.12,0.1 -0.1,0 -0.1,-0.03 -0.15,-0.18 -0.15,-0.53 -0.47,-1.24 -1.01,-1.24 -0.17,0 -0.24,0.1 -0.24,0.33 0,0.25 0.09,0.49 0.18,0.71 0.19,0.52 0.6,1.62 0.6,2.19 0,0.65 -0.4,1.07 -1.14,1.07 -0.75,0 -1.26,-0.44 -1.63,-0.97 -0.01,0.13 -0.04,0.47 -0.32,0.71 -0.24,0.21 -0.56,0.26 -0.81,0.26 -0.9,0 -1.39,-0.64 -1.56,-0.87 -0.05,0.57 -0.46,0.87 -0.91,0.87 -0.46,0 -0.65,-0.39 -0.74,-0.57 -0.18,-0.35 -0.31,-0.94 -0.31,-0.97 0,-0.1 0.1,-0.1 0.12,-0.1 0.1,0 0.11,0.01 0.17,0.23 0.17,0.71 0.37,1.19 0.73,1.19 0.16,0 0.31,-0.08 0.31,-0.46 0,-0.21 -0.03,-0.32 -0.16,-0.84 z"
         id="path5567" /></g>    <path
       inkscape:connector-curvature="0"
       id="path5626"
       d="m 129.63231,34.720307 79.46266,48.639858"
       style="fill:none;stroke:#ff0000;stroke-width:1;stroke-linecap:butt;stroke-linejoin:miter;stroke-miterlimit:4;stroke-dasharray:none;stroke-opacity:1" />
    <path
       style="fill:none;stroke:#000000;stroke-width:1.5;stroke-linecap:butt;stroke-linejoin:miter;stroke-miterlimit:4;stroke-dasharray:none;stroke-opacity:1;marker-end:url(#TriangleOutM)"
       d="M 95.454527,51.224349 H 119.45608"
       id="path5718"
       inkscape:connector-curvature="0" />
    <circle
       style="opacity:1;vector-effect:none;fill:#fe0000;fill-opacity:1;stroke:#ff0000;stroke-width:0.5;stroke-linecap:butt;stroke-linejoin:miter;stroke-miterlimit:4;stroke-dasharray:none;stroke-dashoffset:0;stroke-opacity:1"
       id="path6256"
       cx="44.203789"
       cy="51.864452"
       r="1.2756697" />
    <g
       ns0:preamble=""
       ns0:text="$(0,y_0)$"
       word-spacing="normal"
       letter-spacing="normal"
       font-size-adjust="none"
       font-stretch="normal"
       font-weight="normal"
       font-variant="normal"
       font-style="normal"
       stroke-miterlimit="10.433"
       xml:space="preserve"
       transform="matrix(0.75,0,0,-0.75,-20.089582,522.77469)"
       id="g6872"
       style="font-style:normal;font-variant:normal;font-weight:normal;font-stretch:normal;letter-spacing:normal;word-spacing:normal;text-anchor:start;fill:none;fill-opacity:1;fill-rule:evenodd;stroke:#000000;stroke-linecap:butt;stroke-linejoin:miter;stroke-miterlimit:10.43299961;stroke-dasharray:none;stroke-dashoffset:0;stroke-opacity:1"><path
         id="path6860"
         d="m 226.73,654.84 v 0.01 0 0 0.01 0 0 0.01 h -0.01 v 0 0.01 0 0.01 h -0.01 v 0.01 h -0.01 v 0.01 l -0.01,0.01 v 0 0.01 h -0.01 v 0.01 0 l -0.01,0.01 v 0 h -0.01 v 0.01 h -0.01 v 0.01 h -0.01 v 0.01 l -0.01,0.01 v 0 l -0.01,0.01 v 0 l -0.01,0.01 -0.01,0.01 v 0 l -0.01,0.01 -0.01,0.01 v 0.01 h -0.01 l -0.01,0.01 c -1.24,1.26 -1.56,3.14 -1.56,4.66 0,1.74 0.38,3.47 1.6,4.71 0.13,0.12 0.13,0.15 0.13,0.17 0,0.07 -0.04,0.1 -0.1,0.1 -0.1,0 -1,-0.67 -1.58,-1.94 -0.51,-1.09 -0.63,-2.2 -0.63,-3.04 0,-0.77 0.11,-1.98 0.66,-3.11 0.59,-1.22 1.45,-1.87 1.55,-1.87 0.06,0 0.1,0.03 0.1,0.1 z"
         inkscape:connector-curvature="0"
         style="fill:#000000;stroke-width:0" /><path
         id="path6862"
         d="m 231.89,660.42 v 0.15 0.15 0.15 l -0.01,0.15 -0.01,0.15 -0.01,0.14 -0.02,0.15 -0.02,0.15 -0.02,0.15 -0.03,0.14 -0.03,0.15 -0.04,0.14 -0.04,0.14 -0.05,0.14 -0.05,0.14 -0.03,0.07 -0.04,0.07 c -0.45,0.96 -1.27,1.12 -1.69,1.12 -0.6,0 -1.32,-0.26 -1.73,-1.19 -0.32,-0.69 -0.37,-1.46 -0.37,-2.26 0,-0.75 0.04,-1.64 0.45,-2.4 0.42,-0.81 1.15,-1.01 1.64,-1.01 v 0.22 c -0.39,0 -0.98,0.25 -1.16,1.21 -0.11,0.6 -0.11,1.51 -0.11,2.1 0,0.64 0,1.3 0.08,1.83 0.19,1.19 0.94,1.28 1.19,1.28 0.33,0 0.99,-0.18 1.18,-1.17 0.1,-0.56 0.1,-1.31 0.1,-1.94 0,-0.75 0,-1.43 -0.11,-2.06 -0.15,-0.95 -0.72,-1.25 -1.17,-1.25 v 0 -0.22 c 0.54,0 1.3,0.21 1.73,1.16 0.32,0.69 0.37,1.46 0.37,2.25 z"
         inkscape:connector-curvature="0"
         style="fill:#000000;stroke-width:0" /><path
         id="path6864"
         d="m 234.31,657.24 v 0.06 0.06 0.06 l -0.01,0.06 -0.01,0.05 v 0.05 l -0.01,0.05 -0.01,0.05 -0.01,0.05 -0.02,0.05 -0.01,0.04 -0.02,0.04 -0.01,0.04 -0.02,0.04 -0.02,0.04 -0.02,0.03 -0.02,0.03 -0.02,0.04 -0.03,0.02 -0.02,0.03 -0.03,0.03 -0.03,0.02 -0.02,0.02 -0.03,0.02 -0.03,0.01 -0.03,0.02 -0.03,0.01 -0.04,0.01 -0.03,0.01 h -0.03 l -0.04,0.01 h -0.03 c -0.33,0 -0.53,-0.25 -0.53,-0.53 0,-0.27 0.2,-0.53 0.53,-0.53 0.11,0 0.24,0.04 0.34,0.13 0.03,0.02 0.04,0.03 0.05,0.03 0.01,0 0.02,-0.01 0.02,-0.15 0,-0.73 -0.35,-1.33 -0.67,-1.66 -0.11,-0.11 -0.11,-0.13 -0.11,-0.16 0,-0.07 0.05,-0.11 0.1,-0.11 0.1,0 0.9,0.77 0.9,1.93 z"
         inkscape:connector-curvature="0"
         style="fill:#000000;stroke-width:0" /><path
         id="path6866"
         d="m 241.56,661.03 h 0.01 v 0.01 0.01 0 0.01 l 0.01,0.02 v 0.01 0.01 0 l 0.01,0.01 v 0.01 0.01 0.01 0 l 0.01,0.01 v 0.01 0 0.01 0 0.01 0.01 0 0.01 0.01 0.01 0.01 0.01 0 0.01 0.01 c 0,0.18 -0.14,0.27 -0.28,0.27 -0.1,0 -0.26,-0.06 -0.35,-0.21 -0.02,-0.05 -0.1,-0.36 -0.14,-0.54 -0.07,-0.26 -0.14,-0.53 -0.2,-0.8 l -0.45,-1.79 c -0.04,-0.15 -0.47,-0.85 -1.13,-0.85 -0.5,0 -0.61,0.44 -0.61,0.81 0,0.46 0.16,1.07 0.5,1.95 0.16,0.41 0.2,0.52 0.2,0.72 0,0.45 -0.32,0.82 -0.81,0.82 -0.95,0 -1.32,-1.45 -1.32,-1.54 0,-0.1 0.1,-0.1 0.12,-0.1 0.1,0 0.11,0.02 0.16,0.18 0.27,0.94 0.67,1.24 1.01,1.24 0.08,0 0.25,0 0.25,-0.32 0,-0.25 -0.1,-0.51 -0.17,-0.7 -0.4,-1.06 -0.58,-1.62 -0.58,-2.09 0,-0.89 0.63,-1.19 1.21,-1.19 0.39,0 0.73,0.17 1.01,0.45 -0.13,-0.52 -0.25,-1 -0.65,-1.53 -0.26,-0.34 -0.63,-0.63 -1.09,-0.63 -0.14,0 -0.59,0.03 -0.76,0.42 0.16,0 0.29,0 0.43,0.12 0.1,0.09 0.2,0.22 0.2,0.41 0,0.3 -0.27,0.35 -0.37,0.35 -0.23,0 -0.56,-0.17 -0.56,-0.65 0,-0.5 0.44,-0.87 1.06,-0.87 1.02,0 2.05,0.91 2.33,2.03 z"
         inkscape:connector-curvature="0"
         style="fill:#000000;stroke-width:0" /><path
         id="path6868"
         d="m 245.2,657.97 -0.01,0.14 v 0.13 0.13 l -0.01,0.13 -0.01,0.13 -0.02,0.11 -0.02,0.12 -0.02,0.11 -0.02,0.11 -0.03,0.11 -0.04,0.1 -0.04,0.1 -0.04,0.1 -0.05,0.09 -0.05,0.1 -0.03,0.05 -0.02,0.04 c -0.22,0.32 -0.65,0.6 -1.21,0.6 -1.62,0 -1.62,-1.9 -1.62,-2.4 0,-0.51 0,-2.37 1.62,-2.37 v 0.2 c -0.32,0 -0.75,0.18 -0.89,0.76 -0.09,0.41 -0.09,0.98 -0.09,1.49 0,0.51 0,1.04 0.1,1.43 0.15,0.55 0.59,0.69 0.88,0.69 0.38,0 0.74,-0.22 0.86,-0.63 0.11,-0.38 0.12,-0.88 0.12,-1.49 0,-0.51 0,-1.03 -0.09,-1.47 -0.14,-0.63 -0.61,-0.78 -0.89,-0.78 v 0 -0.2 c 1.62,0 1.62,1.86 1.62,2.37 z"
         inkscape:connector-curvature="0"
         style="fill:#000000;stroke-width:0" /><path
         id="path6870"
         d="m 248.95,659.72 v 0.08 0.07 l -0.01,0.08 v 0.08 l -0.01,0.17 -0.01,0.18 -0.02,0.18 -0.02,0.19 -0.02,0.2 -0.04,0.2 -0.04,0.2 -0.04,0.21 -0.06,0.21 -0.06,0.21 -0.07,0.21 -0.08,0.22 -0.04,0.1 -0.04,0.11 -0.05,0.11 -0.05,0.1 c -0.6,1.23 -1.45,1.87 -1.55,1.87 -0.06,0 -0.11,-0.04 -0.11,-0.1 0,-0.02 0,-0.05 0.19,-0.22 0.98,-0.99 1.55,-2.58 1.55,-4.66 0,-1.7 -0.37,-3.45 -1.61,-4.71 -0.13,-0.12 -0.13,-0.14 -0.13,-0.17 0,-0.06 0.05,-0.1 0.11,-0.1 0.1,0 0.99,0.68 1.58,1.94 0.51,1.1 0.63,2.21 0.63,3.04 z"
         inkscape:connector-curvature="0"
         style="fill:#000000;stroke-width:0" /></g>    <g
       style="font-style:normal;font-variant:normal;font-weight:normal;font-stretch:normal;letter-spacing:normal;word-spacing:normal;text-anchor:start;fill:none;fill-opacity:1;fill-rule:evenodd;stroke:#000000;stroke-linecap:butt;stroke-linejoin:miter;stroke-miterlimit:10.43299961;stroke-dasharray:none;stroke-dashoffset:0;stroke-opacity:1"
       ns0:preamble=""
       ns0:text="$(0,-\\frac{b}{x_0})$"
       word-spacing="normal"
       letter-spacing="normal"
       font-size-adjust="none"
       font-stretch="normal"
       font-weight="normal"
       font-variant="normal"
       font-style="normal"
       stroke-miterlimit="10.433"
       xml:space="preserve"
       transform="matrix(0.75,0,0,-0.75,35.813101,554.52469)"
       id="g7102"><path
         id="path7084"
         d="m 226.73,654.84 v 0.01 0 0 0.01 0 0 0.01 h -0.01 v 0 0.01 0 0.01 h -0.01 v 0.01 h -0.01 v 0.01 l -0.01,0.01 v 0 0.01 h -0.01 v 0.01 0 l -0.01,0.01 v 0 h -0.01 v 0.01 h -0.01 v 0.01 h -0.01 v 0.01 l -0.01,0.01 v 0 l -0.01,0.01 v 0 l -0.01,0.01 -0.01,0.01 v 0 l -0.01,0.01 -0.01,0.01 v 0.01 h -0.01 l -0.01,0.01 c -1.24,1.26 -1.56,3.14 -1.56,4.66 0,1.74 0.38,3.47 1.6,4.71 0.13,0.12 0.13,0.15 0.13,0.17 0,0.07 -0.04,0.1 -0.1,0.1 -0.1,0 -1,-0.67 -1.58,-1.94 -0.51,-1.09 -0.63,-2.2 -0.63,-3.04 0,-0.77 0.11,-1.98 0.66,-3.11 0.59,-1.22 1.45,-1.87 1.55,-1.87 0.06,0 0.1,0.03 0.1,0.1 z"
         inkscape:connector-curvature="0"
         style="fill:#000000;stroke-width:0" /><path
         id="path7086"
         d="m 231.89,660.42 v 0.15 0.15 0.15 l -0.01,0.15 -0.01,0.15 -0.01,0.14 -0.02,0.15 -0.02,0.15 -0.02,0.15 -0.03,0.14 -0.03,0.15 -0.04,0.14 -0.04,0.14 -0.05,0.14 -0.05,0.14 -0.03,0.07 -0.04,0.07 c -0.45,0.96 -1.27,1.12 -1.69,1.12 -0.6,0 -1.32,-0.26 -1.73,-1.19 -0.32,-0.69 -0.37,-1.46 -0.37,-2.26 0,-0.75 0.04,-1.64 0.45,-2.4 0.42,-0.81 1.15,-1.01 1.64,-1.01 v 0.22 c -0.39,0 -0.98,0.25 -1.16,1.21 -0.11,0.6 -0.11,1.51 -0.11,2.1 0,0.64 0,1.3 0.08,1.83 0.19,1.19 0.94,1.28 1.19,1.28 0.33,0 0.99,-0.18 1.18,-1.17 0.1,-0.56 0.1,-1.31 0.1,-1.94 0,-0.75 0,-1.43 -0.11,-2.06 -0.15,-0.95 -0.72,-1.25 -1.17,-1.25 v 0 -0.22 c 0.54,0 1.3,0.21 1.73,1.16 0.32,0.69 0.37,1.46 0.37,2.25 z"
         inkscape:connector-curvature="0"
         style="fill:#000000;stroke-width:0" /><path
         id="path7088"
         d="m 234.31,657.24 v 0.06 0.06 0.06 l -0.01,0.06 -0.01,0.05 v 0.05 l -0.01,0.05 -0.01,0.05 -0.01,0.05 -0.02,0.05 -0.01,0.04 -0.02,0.04 -0.01,0.04 -0.02,0.04 -0.02,0.04 -0.02,0.03 -0.02,0.03 -0.02,0.04 -0.03,0.02 -0.02,0.03 -0.03,0.03 -0.03,0.02 -0.02,0.02 -0.03,0.02 -0.03,0.01 -0.03,0.02 -0.03,0.01 -0.04,0.01 -0.03,0.01 h -0.03 l -0.04,0.01 h -0.03 c -0.33,0 -0.53,-0.25 -0.53,-0.53 0,-0.27 0.2,-0.53 0.53,-0.53 0.11,0 0.24,0.04 0.34,0.13 0.03,0.02 0.04,0.03 0.05,0.03 0.01,0 0.02,-0.01 0.02,-0.15 0,-0.73 -0.35,-1.33 -0.67,-1.66 -0.11,-0.11 -0.11,-0.13 -0.11,-0.16 0,-0.07 0.05,-0.11 0.1,-0.11 0.1,0 0.9,0.77 0.9,1.93 z"
         inkscape:connector-curvature="0"
         style="fill:#000000;stroke-width:0" /><path
         id="path7090"
         d="m 243.28,659.52 h 0.03 0.03 l 0.04,0.01 h 0.01 0.02 0.01 0.02 0.01 0.02 l 0.01,0.01 h 0.01 0.02 l 0.01,0.01 h 0.01 l 0.01,0.01 0.01,0.01 h 0.01 l 0.01,0.01 0.01,0.01 0.01,0.01 0.01,0.01 v 0 l 0.01,0.01 v 0 0.01 0.01 h 0.01 v 0.01 0.01 0 0.01 l 0.01,0.01 v 0.01 0.01 0 0.01 0.01 c 0,0.2 -0.18,0.2 -0.35,0.2 h -5.39 c -0.17,0 -0.35,0 -0.35,-0.2 0,-0.2 0.18,-0.2 0.35,-0.2 z"
         inkscape:connector-curvature="0"
         style="fill:#000000;stroke-width:0" /><path
         id="path7092"
         d="m 249.95,665.79 v 0 0 0 0 0 0 0 0 0.01 0 h 0.01 v 0.01 0 0.01 0 0.01 0 0 l 0.01,0.01 v 0.01 0.01 0 0.01 0 0 0.01 0 0.01 0 0 0 h 0.01 v 0 0 0 0 0.01 0 0 0 c 0,0.03 -0.03,0.09 -0.11,0.09 -0.14,0 -0.72,-0.05 -0.9,-0.07 -0.05,0 -0.15,-0.01 -0.15,-0.15 0,-0.1 0.1,-0.1 0.18,-0.1 0.34,0 0.34,-0.05 0.34,-0.11 0,-0.05 -0.08,-0.33 -0.12,-0.49 l -0.16,-0.64 c -0.06,-0.23 -0.44,-1.76 -0.46,-1.85 -0.03,-0.17 -0.03,-0.26 -0.03,-0.34 0,-0.71 0.44,-1.15 1.02,-1.15 l 0.01,0.19 c -0.34,0 -0.54,0.3 -0.54,0.71 0,0.26 0.07,0.5 0.26,1.29 0.04,0.13 0.04,0.14 0.17,0.3 0.27,0.3 0.58,0.45 0.83,0.45 0.28,0 0.51,-0.2 0.51,-0.67 0,-0.29 -0.15,-1 -0.36,-1.4 -0.17,-0.35 -0.51,-0.68 -0.87,-0.68 v 0 l -0.01,-0.19 c 0.87,0 1.8,0.94 1.8,1.98 0,0.81 -0.56,1.16 -1.04,1.16 -0.37,0 -0.67,-0.2 -0.88,-0.38 z"
         inkscape:connector-curvature="0"
         style="fill:#000000;stroke-width:0" /><line
         id="line7094"
         y2="659.72998"
         x2="254.07001"
         y1="659.72998"
         x1="245.66"
         style="stroke-width:0.398" /><path
         id="path7096"
         d="m 247.4,654.54 -0.01,-0.03 -0.01,-0.02 v -0.02 l -0.01,-0.03 -0.02,-0.02 -0.01,-0.03 -0.01,-0.02 -0.01,-0.03 -0.02,-0.02 -0.01,-0.03 -0.02,-0.03 -0.02,-0.02 -0.01,-0.03 -0.02,-0.02 -0.02,-0.03 -0.02,-0.02 -0.02,-0.02 -0.02,-0.02 -0.03,-0.03 -0.02,-0.02 -0.03,-0.01 -0.02,-0.02 -0.03,-0.02 -0.02,-0.01 -0.03,-0.02 -0.03,-0.01 -0.03,-0.01 -0.03,-0.01 -0.03,-0.01 h -0.03 l -0.03,-0.01 h -0.04 c -0.02,0 -0.23,0 -0.37,0.1 0.28,0.09 0.3,0.34 0.3,0.38 0,0.16 -0.12,0.26 -0.27,0.26 -0.2,0 -0.4,-0.17 -0.4,-0.42 0,-0.35 0.39,-0.51 0.73,-0.51 0.32,0 0.61,0.2 0.78,0.49 0.17,-0.37 0.55,-0.49 0.83,-0.49 0.8,0 1.23,0.87 1.23,1.06 0,0.1 -0.09,0.1 -0.11,0.1 -0.1,0 -0.11,-0.04 -0.14,-0.12 -0.14,-0.48 -0.56,-0.85 -0.95,-0.85 -0.28,0 -0.43,0.19 -0.43,0.46 0,0.18 0.17,0.81 0.37,1.59 0.14,0.53 0.45,0.71 0.68,0.71 0.01,0 0.23,0 0.38,-0.1 -0.23,-0.06 -0.31,-0.26 -0.31,-0.38 0,-0.16 0.12,-0.26 0.28,-0.26 0.16,0 0.39,0.13 0.39,0.42 0,0.39 -0.45,0.51 -0.73,0.51 -0.35,0 -0.62,-0.23 -0.78,-0.49 -0.12,0.28 -0.44,0.49 -0.84,0.49 -0.78,0 -1.22,-0.85 -1.22,-1.06 0,-0.09 0.1,-0.09 0.12,-0.09 0.09,0 0.09,0.02 0.13,0.11 0.17,0.55 0.61,0.85 0.95,0.85 0.23,0 0.42,-0.13 0.42,-0.46 0,-0.14 -0.08,-0.49 -0.14,-0.73 z"
         inkscape:connector-curvature="0"
         style="fill:#000000;stroke-width:0" /><path
         id="path7098"
         d="m 253.17,654.4 v 0.04 0.04 0.05 0.05 0.05 l -0.01,0.06 v 0.07 l -0.01,0.06 -0.01,0.07 -0.01,0.07 -0.01,0.07 -0.02,0.07 -0.02,0.08 -0.02,0.07 -0.02,0.07 -0.03,0.08 -0.03,0.07 -0.04,0.07 -0.04,0.07 -0.05,0.06 -0.05,0.07 -0.05,0.06 -0.03,0.03 -0.03,0.02 -0.03,0.03 -0.04,0.03 -0.03,0.02 -0.04,0.02 -0.04,0.03 -0.04,0.02 -0.04,0.02 -0.04,0.01 -0.04,0.02 -0.05,0.02 -0.05,0.01 -0.05,0.01 -0.05,0.01 -0.05,0.01 -0.05,0.01 h -0.06 -0.06 -0.06 v -0.16 c 0.37,0 0.63,-0.19 0.73,-0.54 0.07,-0.25 0.07,-0.66 0.07,-0.96 0,-0.34 0,-0.74 -0.07,-1.04 -0.13,-0.48 -0.53,-0.56 -0.73,-0.56 v 0 c -0.18,0 -0.6,0.07 -0.73,0.57 -0.07,0.27 -0.07,0.62 -0.07,1.03 0,0.37 0,0.71 0.08,1 0.12,0.42 0.51,0.5 0.72,0.5 v 0.16 c -1.3,0 -1.3,-1.36 -1.3,-1.72 0,-0.36 0,-1.7 1.3,-1.7 1.3,0 1.3,1.34 1.3,1.7 z"
         inkscape:connector-curvature="0"
         style="fill:#000000;stroke-width:0" /><path
         id="path7100"
         d="m 258.14,659.72 v 0.08 0.07 0.08 0.08 l -0.01,0.17 -0.01,0.18 -0.02,0.18 -0.02,0.19 -0.03,0.2 -0.03,0.2 -0.04,0.2 -0.05,0.21 -0.05,0.21 -0.06,0.21 -0.07,0.21 -0.08,0.22 -0.04,0.1 -0.05,0.11 -0.05,0.11 -0.05,0.1 c -0.59,1.23 -1.45,1.87 -1.55,1.87 -0.06,0 -0.1,-0.04 -0.1,-0.1 0,-0.02 0,-0.05 0.19,-0.22 0.98,-0.99 1.54,-2.58 1.54,-4.66 0,-1.7 -0.36,-3.45 -1.6,-4.71 -0.13,-0.12 -0.13,-0.14 -0.13,-0.17 0,-0.06 0.04,-0.1 0.1,-0.1 0.1,0 1,0.68 1.58,1.94 0.51,1.1 0.63,2.21 0.63,3.04 z"
         inkscape:connector-curvature="0"
         style="fill:#000000;stroke-width:0" /></g>    <path
       style="fill:none;stroke:#000000;stroke-width:0.5;stroke-linecap:butt;stroke-linejoin:miter;stroke-miterlimit:4;stroke-dasharray:none;stroke-opacity:1;marker-end:url(#marker7173)"
       d="m 148.25041,33.60387 -6.40631,6.269288"
       id="path7163"
       inkscape:connector-curvature="0" />
    <path
       inkscape:connector-curvature="0"
       id="path7211"
       d="M 211.02704,65.036975 200.48216,75.356316"
       style="fill:none;stroke:#000000;stroke-width:0.5;stroke-linecap:butt;stroke-linejoin:miter;stroke-miterlimit:4;stroke-dasharray:none;stroke-opacity:1;marker-end:url(#marker7215)" />
    <g
       style="font-style:normal;font-variant:normal;font-weight:normal;font-stretch:normal;letter-spacing:normal;word-spacing:normal;text-anchor:start;fill:none;fill-opacity:1;fill-rule:evenodd;stroke:#000000;stroke-linecap:butt;stroke-linejoin:miter;stroke-miterlimit:10.43299961;stroke-dasharray:none;stroke-dashoffset:0;stroke-opacity:1"
       id="g7804"
       transform="matrix(1.1946066,0,0,-1.1946066,-246.69302,883.28397)"
       xml:space="preserve"
       stroke-miterlimit="10.433"
       font-style="normal"
       font-variant="normal"
       font-weight="normal"
       font-stretch="normal"
       font-size-adjust="none"
       letter-spacing="normal"
       word-spacing="normal"
       ns0:text="$y_0  = mx_0 + b ~~~ \\longrightarrow ~~~ b = -x_0 m + y_0$"
       ns0:preamble=""><path
         style="fill:#000000;stroke-width:0"
         inkscape:connector-curvature="0"
         d="m 228.27,661.03 h 0.01 v 0.01 0.01 0 0.01 l 0.01,0.02 v 0.01 0.01 0 l 0.01,0.01 v 0.01 0.01 0.01 0 l 0.01,0.01 v 0.01 0 0.01 0 0.01 0.01 0 0.01 0.01 0.01 0.01 0.01 0 0.01 0.01 c 0,0.18 -0.13,0.27 -0.29,0.27 -0.09,0 -0.25,-0.06 -0.34,-0.21 -0.02,-0.05 -0.1,-0.36 -0.14,-0.54 -0.07,-0.26 -0.14,-0.53 -0.2,-0.8 l -0.45,-1.79 c -0.04,-0.15 -0.47,-0.85 -1.13,-0.85 -0.5,0 -0.61,0.44 -0.61,0.81 0,0.46 0.17,1.07 0.5,1.95 0.16,0.41 0.2,0.52 0.2,0.72 0,0.45 -0.31,0.82 -0.81,0.82 -0.95,0 -1.32,-1.45 -1.32,-1.54 0,-0.1 0.1,-0.1 0.12,-0.1 0.1,0 0.11,0.02 0.16,0.18 0.27,0.94 0.67,1.24 1.01,1.24 0.08,0 0.25,0 0.25,-0.32 0,-0.25 -0.1,-0.51 -0.17,-0.7 -0.4,-1.06 -0.58,-1.62 -0.58,-2.09 0,-0.89 0.63,-1.19 1.21,-1.19 0.39,0 0.73,0.17 1.01,0.45 -0.13,-0.52 -0.25,-1 -0.65,-1.53 -0.26,-0.34 -0.63,-0.63 -1.09,-0.63 -0.14,0 -0.59,0.03 -0.76,0.42 0.16,0 0.29,0 0.43,0.12 0.1,0.09 0.2,0.22 0.2,0.41 0,0.3 -0.27,0.35 -0.37,0.35 -0.23,0 -0.56,-0.17 -0.56,-0.65 0,-0.5 0.44,-0.87 1.06,-0.87 1.02,0 2.05,0.91 2.33,2.03 z"
         id="path7762" /><path
         style="fill:#000000;stroke-width:0"
         inkscape:connector-curvature="0"
         d="m 231.91,657.97 v 0.14 0.13 l -0.01,0.13 -0.01,0.13 -0.01,0.13 -0.01,0.11 -0.02,0.12 -0.02,0.11 -0.03,0.11 -0.03,0.11 -0.03,0.1 -0.04,0.1 -0.04,0.1 -0.05,0.09 -0.05,0.1 -0.03,0.05 -0.03,0.04 c -0.21,0.32 -0.65,0.6 -1.2,0.6 -1.62,0 -1.62,-1.9 -1.62,-2.4 0,-0.51 0,-2.37 1.62,-2.37 v 0.2 c -0.32,0 -0.75,0.18 -0.89,0.76 -0.1,0.41 -0.1,0.98 -0.1,1.49 0,0.51 0,1.04 0.11,1.43 0.14,0.55 0.59,0.69 0.88,0.69 0.37,0 0.74,-0.22 0.86,-0.63 0.11,-0.38 0.12,-0.88 0.12,-1.49 0,-0.51 0,-1.03 -0.09,-1.47 -0.14,-0.63 -0.62,-0.78 -0.89,-0.78 v 0 -0.2 c 1.61,0 1.61,1.86 1.61,2.37 z"
         id="path7764" /><path
         style="fill:#000000;stroke-width:0"
         inkscape:connector-curvature="0"
         d="m 242.4,660.49 h 0.03 0.02 0.03 0.02 0.01 0.02 l 0.01,0.01 h 0.02 0.01 0.01 l 0.02,0.01 h 0.01 0.01 l 0.01,0.01 0.02,0.01 h 0.01 l 0.01,0.01 0.01,0.01 h 0.01 l 0.01,0.01 v 0.01 l 0.01,0.01 v 0.01 0 l 0.01,0.01 v 0 0.01 l 0.01,0.01 v 0 0.01 0.01 0.01 0 0.01 l 0.01,0.01 v 0.01 0.01 c 0,0.2 -0.19,0.2 -0.33,0.2 h -5.97 c -0.14,0 -0.33,0 -0.33,-0.2 0,-0.2 0.19,-0.2 0.34,-0.2 z"
         id="path7766" /><path
         style="fill:#000000;stroke-width:0"
         inkscape:connector-curvature="0"
         d="m 242.41,658.56 h 0.01 0.01 0.03 0.03 0.01 0.02 0.01 0.01 l 0.02,0.01 h 0.01 0.02 0.01 l 0.01,0.01 h 0.01 l 0.02,0.01 h 0.01 l 0.01,0.01 0.01,0.01 h 0.01 l 0.01,0.01 0.01,0.01 v 0.01 0 l 0.01,0.01 v 0 0.01 h 0.01 v 0.01 0.01 h 0.01 v 0.01 0.01 0.01 0 0.01 0.01 l 0.01,0.01 v 0.01 0.01 c 0,0.2 -0.19,0.2 -0.34,0.2 h -5.95 c -0.15,0 -0.34,0 -0.34,-0.2 0,-0.2 0.19,-0.2 0.33,-0.2 z"
         id="path7768" /><path
         style="fill:#000000;stroke-width:0"
         inkscape:connector-curvature="0"
         d="m 246.94,657.82 v -0.01 -0.02 l -0.01,-0.01 v -0.02 l -0.01,-0.03 v -0.03 l -0.01,-0.04 -0.01,-0.03 v -0.03 l -0.01,-0.03 -0.01,-0.02 v -0.01 -0.02 -0.01 l -0.01,-0.01 v -0.02 -0.01 l -0.01,-0.01 v -0.01 -0.01 -0.01 -0.01 -0.01 -0.01 0 l -0.01,-0.01 c 0,-0.18 0.14,-0.27 0.29,-0.27 0.12,0 0.3,0.08 0.37,0.28 0.01,0.02 0.13,0.49 0.19,0.74 l 0.22,0.9 c 0.06,0.22 0.12,0.43 0.17,0.66 0.04,0.17 0.12,0.46 0.13,0.5 0.15,0.31 0.68,1.22 1.62,1.22 0.45,0 0.54,-0.37 0.54,-0.7 0,-0.25 -0.07,-0.53 -0.15,-0.83 l -0.28,-1.15 -0.2,-0.76 c -0.04,-0.2 -0.13,-0.54 -0.13,-0.59 0,-0.18 0.14,-0.27 0.29,-0.27 0.31,0 0.37,0.25 0.45,0.57 0.14,0.56 0.51,2.01 0.6,2.4 0.03,0.13 0.56,1.33 1.64,1.33 0.43,0 0.54,-0.34 0.54,-0.7 0,-0.57 -0.42,-1.7 -0.62,-2.23 -0.09,-0.24 -0.13,-0.35 -0.13,-0.55 0,-0.47 0.35,-0.82 0.82,-0.82 0.94,0 1.31,1.46 1.31,1.54 0,0.1 -0.09,0.1 -0.12,0.1 -0.1,0 -0.1,-0.03 -0.15,-0.18 -0.15,-0.53 -0.47,-1.24 -1.02,-1.24 -0.17,0 -0.24,0.1 -0.24,0.33 0,0.25 0.09,0.49 0.18,0.71 0.19,0.52 0.61,1.62 0.61,2.19 0,0.65 -0.4,1.07 -1.15,1.07 -0.74,0 -1.25,-0.44 -1.62,-0.97 -0.01,0.13 -0.04,0.47 -0.32,0.71 -0.25,0.21 -0.57,0.26 -0.82,0.26 -0.89,0 -1.38,-0.64 -1.55,-0.87 -0.05,0.57 -0.47,0.87 -0.92,0.87 -0.46,0 -0.64,-0.39 -0.74,-0.57 -0.17,-0.35 -0.3,-0.94 -0.3,-0.97 0,-0.1 0.1,-0.1 0.12,-0.1 0.1,0 0.11,0.01 0.17,0.23 0.17,0.71 0.36,1.19 0.72,1.19 0.16,0 0.31,-0.08 0.31,-0.46 0,-0.21 -0.03,-0.32 -0.16,-0.84 z"
         id="path7770" /><path
         style="fill:#000000;stroke-width:0"
         inkscape:connector-curvature="0"
         d="m 258.14,660.24 0.01,0.03 v 0.03 l 0.01,0.03 0.01,0.04 0.01,0.03 0.01,0.05 0.02,0.04 0.01,0.04 0.02,0.05 0.01,0.05 0.02,0.05 0.02,0.05 0.03,0.05 0.02,0.05 0.03,0.05 0.02,0.05 0.03,0.04 0.03,0.05 0.04,0.05 0.03,0.04 0.04,0.05 0.04,0.04 0.04,0.03 0.05,0.04 0.04,0.03 0.05,0.03 0.03,0.01 0.02,0.02 0.03,0.01 0.03,0.01 0.02,0.01 h 0.03 l 0.03,0.01 0.03,0.01 h 0.03 0.03 l 0.03,0.01 h 0.04 c 0.05,0 0.29,0 0.49,-0.13 -0.27,-0.05 -0.47,-0.3 -0.47,-0.54 0,-0.16 0.11,-0.35 0.37,-0.35 0.22,0 0.54,0.18 0.54,0.58 0,0.52 -0.58,0.66 -0.92,0.66 -0.58,0 -0.93,-0.53 -1.05,-0.76 -0.25,0.66 -0.79,0.76 -1.08,0.76 -1.03,0 -1.6,-1.29 -1.6,-1.54 0,-0.1 0.1,-0.1 0.12,-0.1 0.08,0 0.11,0.02 0.13,0.11 0.34,1.06 1,1.31 1.33,1.31 0.19,0 0.54,-0.09 0.54,-0.67 0,-0.31 -0.17,-0.98 -0.54,-2.37 -0.16,-0.62 -0.5,-1.04 -0.94,-1.04 -0.06,0 -0.29,0 -0.5,0.13 0.25,0.05 0.47,0.26 0.47,0.54 0,0.27 -0.22,0.35 -0.37,0.35 -0.3,0 -0.55,-0.26 -0.55,-0.58 0,-0.46 0.5,-0.66 0.94,-0.66 0.66,0 1.01,0.7 1.04,0.76 0.12,-0.37 0.48,-0.76 1.08,-0.76 1.03,0 1.59,1.29 1.59,1.54 0,0.1 -0.09,0.1 -0.12,0.1 -0.08,0 -0.11,-0.04 -0.12,-0.11 -0.33,-1.07 -1.01,-1.31 -1.33,-1.31 -0.39,0 -0.55,0.32 -0.55,0.66 0,0.22 0.06,0.44 0.17,0.88 z"
         id="path7772" /><path
         style="fill:#000000;stroke-width:0"
         inkscape:connector-curvature="0"
         d="m 264.11,657.97 v 0.14 0.13 l -0.01,0.13 -0.01,0.13 -0.01,0.13 -0.01,0.11 -0.02,0.12 -0.02,0.11 -0.03,0.11 -0.03,0.11 -0.03,0.1 -0.04,0.1 -0.04,0.1 -0.05,0.09 -0.05,0.1 -0.03,0.05 -0.03,0.04 c -0.22,0.32 -0.65,0.6 -1.21,0.6 -1.61,0 -1.61,-1.9 -1.61,-2.4 0,-0.51 0,-2.37 1.61,-2.37 v 0.2 c -0.32,0 -0.74,0.18 -0.88,0.76 -0.1,0.41 -0.1,0.98 -0.1,1.49 0,0.51 0,1.04 0.1,1.43 0.15,0.55 0.6,0.69 0.88,0.69 0.38,0 0.74,-0.22 0.87,-0.63 0.11,-0.38 0.12,-0.88 0.12,-1.49 0,-0.51 0,-1.03 -0.09,-1.47 -0.14,-0.63 -0.62,-0.78 -0.9,-0.78 v 0 -0.2 c 1.62,0 1.62,1.86 1.62,2.37 z"
         id="path7774" /><path
         style="fill:#000000;stroke-width:0"
         inkscape:connector-curvature="0"
         d="m 271.27,659.52 h 2.78 c 0.14,0 0.33,0 0.33,0.2 0,0.2 -0.19,0.2 -0.33,0.2 h -2.78 v 2.79 c 0,0.14 0,0.33 -0.2,0.33 -0.2,0 -0.2,-0.19 -0.2,-0.33 v -2.79 h -2.79 c -0.14,0 -0.33,0 -0.33,-0.2 0,-0.2 0.19,-0.2 0.33,-0.2 h 2.79 v -2.79 c 0,-0.14 0,-0.32 0.2,-0.32 0.2,0 0.2,0.18 0.2,0.32 z"
         id="path7776" /><path
         style="fill:#000000;stroke-width:0"
         inkscape:connector-curvature="0"
         d="m 279.54,664.04 v 0 0 0 0 0 0.01 0 h -0.01 v 0.01 0 0.01 0 0.01 0 0.01 h -0.01 v 0.01 0 l -0.01,0.01 v 0 h -0.01 v 0.01 0 0 h -0.01 v 0.01 0 h -0.01 v 0 0 h -0.01 v 0.01 0 h -0.01 v 0 h -0.01 v 0 h -0.01 v 0 l -0.01,0.01 v 0 h -0.01 v 0 h -0.01 v 0 c -0.23,0 -0.96,-0.08 -1.22,-0.1 -0.08,-0.01 -0.19,-0.02 -0.19,-0.2 0,-0.12 0.09,-0.12 0.24,-0.12 0.48,0 0.5,-0.07 0.5,-0.17 0,-0.07 -0.09,-0.41 -0.14,-0.62 l -0.82,-3.25 c -0.12,-0.49 -0.16,-0.65 -0.16,-1 0,-0.95 0.53,-1.57 1.27,-1.57 v 0.22 c -0.34,0 -0.67,0.27 -0.67,1.01 0,0.19 0,0.38 0.16,1 l 0.22,0.92 c 0.06,0.22 0.06,0.24 0.15,0.35 0.49,0.65 0.93,0.8 1.2,0.8 0.35,0 0.62,-0.3 0.62,-0.94 0,-0.59 -0.33,-1.73 -0.51,-2.11 -0.33,-0.67 -0.78,-1.03 -1.17,-1.03 v -0.22 c 1.17,0 2.4,1.49 2.4,2.92 0,0.91 -0.53,1.6 -1.33,1.6 -0.45,0 -0.86,-0.29 -1.16,-0.6 z"
         id="path7778" /><path
         style="fill:#000000;stroke-width:0"
         inkscape:connector-curvature="0"
         d="m 300.73,659.52 h 0.03 0.03 l 0.04,0.01 h 0.01 0.02 0.01 0.02 0.01 0.02 l 0.01,0.01 h 0.01 0.02 l 0.01,0.01 h 0.01 l 0.01,0.01 0.01,0.01 h 0.01 l 0.01,0.01 0.01,0.01 0.01,0.01 0.01,0.01 v 0 l 0.01,0.01 v 0 0.01 0.01 h 0.01 v 0.01 0.01 0 0.01 l 0.01,0.01 v 0.01 0.01 0 0.01 0.01 c 0,0.2 -0.18,0.2 -0.35,0.2 h -5.39 c -0.17,0 -0.35,0 -0.35,-0.2 0,-0.2 0.18,-0.2 0.35,-0.2 z"
         id="path7780" /><path
         style="fill:#000000;stroke-width:0"
         inkscape:connector-curvature="0"
         d="m 308.56,659.52 -0.05,-0.04 -0.05,-0.03 -0.05,-0.04 -0.05,-0.04 -0.04,-0.04 -0.04,-0.04 -0.04,-0.04 -0.04,-0.03 -0.04,-0.04 -0.04,-0.04 -0.03,-0.03 -0.04,-0.04 -0.03,-0.03 -0.03,-0.04 -0.03,-0.03 -0.03,-0.03 -0.02,-0.03 -0.03,-0.03 -0.02,-0.03 -0.03,-0.03 -0.02,-0.03 -0.02,-0.03 -0.02,-0.02 -0.01,-0.03 -0.02,-0.02 -0.01,-0.02 -0.02,-0.02 -0.01,-0.02 -0.01,-0.02 -0.01,-0.01 -0.01,-0.02 -0.01,-0.01 c -0.45,-0.69 -0.53,-1.32 -0.53,-1.33 0,-0.12 0.12,-0.12 0.2,-0.12 0.17,0 0.18,0.02 0.22,0.2 0.23,0.98 0.82,1.82 1.94,2.27 0.12,0.04 0.15,0.06 0.15,0.13 0,0.07 -0.06,0.1 -0.08,0.11 -0.44,0.17 -1.64,0.67 -2.02,2.34 -0.03,0.12 -0.04,0.15 -0.21,0.15 -0.08,0 -0.2,0 -0.2,-0.12 0,-0.02 0.09,-0.64 0.51,-1.31 0.2,-0.3 0.49,-0.65 0.92,-0.97 h -7.41 c -0.17,0 -0.35,0 -0.35,-0.2 0,-0.2 0.18,-0.2 0.35,-0.2 z"
         id="path7782" /><path
         style="fill:#000000;stroke-width:0"
         inkscape:connector-curvature="0"
         d="m 325.32,664.04 v 0 0 0 0 0 0.01 0 0 0.01 0 0.01 0 0.01 0 l -0.01,0.01 v 0 0.01 h -0.01 v 0.01 0 h -0.01 v 0.01 0 h -0.01 v 0 0.01 0 h -0.01 v 0 0 h -0.01 v 0.01 h -0.01 v 0 0 h -0.01 v 0 h -0.01 v 0 l -0.01,0.01 v 0 h -0.01 v 0 h -0.01 -0.01 c -0.23,0 -0.95,-0.08 -1.21,-0.1 -0.08,-0.01 -0.19,-0.02 -0.19,-0.2 0,-0.12 0.09,-0.12 0.24,-0.12 0.48,0 0.5,-0.07 0.5,-0.17 0,-0.07 -0.09,-0.41 -0.14,-0.62 l -0.82,-3.25 c -0.12,-0.49 -0.16,-0.65 -0.16,-1 0,-0.95 0.53,-1.57 1.27,-1.57 v 0.22 c -0.34,0 -0.67,0.27 -0.67,1.01 0,0.19 0,0.38 0.16,1 l 0.22,0.92 c 0.06,0.22 0.06,0.24 0.15,0.35 0.48,0.65 0.93,0.8 1.19,0.8 0.36,0 0.63,-0.3 0.63,-0.94 0,-0.59 -0.33,-1.73 -0.51,-2.11 -0.33,-0.67 -0.78,-1.03 -1.17,-1.03 v -0.22 c 1.17,0 2.4,1.49 2.4,2.92 0,0.91 -0.53,1.6 -1.33,1.6 -0.46,0 -0.86,-0.29 -1.16,-0.6 z"
         id="path7784" /><path
         style="fill:#000000;stroke-width:0"
         inkscape:connector-curvature="0"
         d="m 336.83,660.49 h 0.03 0.03 0.03 0.01 0.02 0.01 l 0.01,0.01 h 0.02 0.01 0.02 l 0.01,0.01 h 0.01 0.01 l 0.02,0.01 0.01,0.01 h 0.01 l 0.01,0.01 0.01,0.01 h 0.01 l 0.01,0.01 0.01,0.01 v 0.01 0.01 h 0.01 v 0.01 0 l 0.01,0.01 v 0.01 0 0.01 0.01 0.01 h 0.01 v 0.01 0.01 0.01 0.01 c 0,0.2 -0.19,0.2 -0.33,0.2 h -5.97 c -0.14,0 -0.33,0 -0.33,-0.2 0,-0.2 0.19,-0.2 0.34,-0.2 z"
         id="path7786" /><path
         style="fill:#000000;stroke-width:0"
         inkscape:connector-curvature="0"
         d="m 336.84,658.56 h 0.03 0.02 0.03 0.02 0.01 0.01 0.02 l 0.01,0.01 h 0.01 0.02 0.01 l 0.01,0.01 h 0.02 l 0.01,0.01 h 0.01 l 0.01,0.01 0.01,0.01 h 0.01 l 0.01,0.01 0.01,0.01 v 0.01 h 0.01 v 0.01 0 l 0.01,0.01 v 0 0.01 l 0.01,0.01 v 0 0.01 0.01 0.01 0 l 0.01,0.01 v 0.01 0.01 0.01 0.01 c 0,0.2 -0.19,0.2 -0.34,0.2 h -5.95 c -0.15,0 -0.34,0 -0.34,-0.2 0,-0.2 0.19,-0.2 0.33,-0.2 z"
         id="path7788" /><path
         style="fill:#000000;stroke-width:0"
         inkscape:connector-curvature="0"
         d="m 347.07,659.52 h 0.03 0.03 l 0.03,0.01 h 0.02 0.01 0.02 0.01 0.02 0.01 l 0.01,0.01 h 0.02 0.01 l 0.01,0.01 h 0.02 l 0.01,0.01 0.01,0.01 h 0.01 l 0.01,0.01 0.01,0.01 0.01,0.01 v 0.01 h 0.01 v 0.01 0 l 0.01,0.01 v 0.01 0 0.01 l 0.01,0.01 v 0 0.01 0.01 0.01 0.01 0 0.01 0.01 c 0,0.2 -0.18,0.2 -0.34,0.2 h -5.39 c -0.17,0 -0.35,0 -0.35,-0.2 0,-0.2 0.18,-0.2 0.35,-0.2 z"
         id="path7790" /><path
         style="fill:#000000;stroke-width:0"
         inkscape:connector-curvature="0"
         d="m 351.58,660.24 v 0.03 l 0.01,0.03 0.01,0.03 0.01,0.04 0.01,0.03 0.01,0.05 0.01,0.04 0.02,0.04 0.01,0.05 0.02,0.05 0.02,0.05 0.02,0.05 0.02,0.05 0.03,0.05 0.02,0.05 0.03,0.05 0.03,0.04 0.03,0.05 0.03,0.05 0.04,0.04 0.04,0.05 0.04,0.04 0.04,0.03 0.04,0.04 0.05,0.03 0.05,0.03 0.02,0.01 0.03,0.02 0.02,0.01 0.03,0.01 0.03,0.01 h 0.03 l 0.03,0.01 0.03,0.01 h 0.03 0.03 l 0.03,0.01 h 0.03 c 0.05,0 0.29,0 0.5,-0.13 -0.28,-0.05 -0.48,-0.3 -0.48,-0.54 0,-0.16 0.11,-0.35 0.38,-0.35 0.22,0 0.54,0.18 0.54,0.58 0,0.52 -0.59,0.66 -0.93,0.66 -0.58,0 -0.93,-0.53 -1.05,-0.76 -0.24,0.66 -0.78,0.76 -1.07,0.76 -1.04,0 -1.6,-1.29 -1.6,-1.54 0,-0.1 0.1,-0.1 0.11,-0.1 0.09,0 0.11,0.02 0.13,0.11 0.34,1.06 1,1.31 1.34,1.31 0.19,0 0.54,-0.09 0.54,-0.67 0,-0.31 -0.17,-0.98 -0.54,-2.37 -0.16,-0.62 -0.51,-1.04 -0.95,-1.04 -0.06,0 -0.29,0 -0.5,0.13 0.25,0.05 0.47,0.26 0.47,0.54 0,0.27 -0.22,0.35 -0.37,0.35 -0.29,0 -0.54,-0.26 -0.54,-0.58 0,-0.46 0.5,-0.66 0.93,-0.66 0.66,0 1.02,0.7 1.05,0.76 0.12,-0.37 0.48,-0.76 1.08,-0.76 1.02,0 1.59,1.29 1.59,1.54 0,0.1 -0.09,0.1 -0.12,0.1 -0.09,0 -0.11,-0.04 -0.13,-0.11 -0.33,-1.07 -1.01,-1.31 -1.33,-1.31 -0.38,0 -0.54,0.32 -0.54,0.66 0,0.22 0.06,0.44 0.17,0.88 z"
         id="path7792" /><path
         style="fill:#000000;stroke-width:0"
         inkscape:connector-curvature="0"
         d="m 357.55,657.97 -0.01,0.14 v 0.13 0.13 l -0.01,0.13 -0.01,0.13 -0.02,0.11 -0.02,0.12 -0.02,0.11 -0.02,0.11 -0.03,0.11 -0.04,0.1 -0.04,0.1 -0.04,0.1 -0.05,0.09 -0.05,0.1 -0.03,0.05 -0.02,0.04 c -0.22,0.32 -0.65,0.6 -1.21,0.6 -1.62,0 -1.62,-1.9 -1.62,-2.4 0,-0.51 0,-2.37 1.62,-2.37 v 0.2 c -0.32,0 -0.75,0.18 -0.89,0.76 -0.09,0.41 -0.09,0.98 -0.09,1.49 0,0.51 0,1.04 0.1,1.43 0.15,0.55 0.59,0.69 0.88,0.69 0.37,0 0.74,-0.22 0.86,-0.63 0.11,-0.38 0.12,-0.88 0.12,-1.49 0,-0.51 0,-1.03 -0.09,-1.47 -0.14,-0.63 -0.61,-0.78 -0.89,-0.78 v 0 -0.2 c 1.62,0 1.62,1.86 1.62,2.37 z"
         id="path7794" /><path
         style="fill:#000000;stroke-width:0"
         inkscape:connector-curvature="0"
         d="m 359.29,657.82 v -0.01 -0.02 l -0.01,-0.01 v -0.02 l -0.01,-0.03 v -0.03 l -0.01,-0.04 -0.01,-0.03 v -0.03 l -0.01,-0.03 -0.01,-0.02 v -0.01 -0.02 -0.01 l -0.01,-0.01 v -0.02 -0.01 l -0.01,-0.01 v -0.01 -0.01 -0.01 -0.01 -0.01 -0.01 0 l -0.01,-0.01 c 0,-0.18 0.14,-0.27 0.29,-0.27 0.12,0 0.3,0.08 0.37,0.28 0.01,0.02 0.13,0.49 0.19,0.74 l 0.22,0.9 c 0.06,0.22 0.12,0.43 0.17,0.66 0.04,0.17 0.12,0.46 0.13,0.5 0.15,0.31 0.68,1.22 1.62,1.22 0.45,0 0.54,-0.37 0.54,-0.7 0,-0.25 -0.07,-0.53 -0.15,-0.83 l -0.28,-1.15 -0.2,-0.76 c -0.04,-0.2 -0.13,-0.54 -0.13,-0.59 0,-0.18 0.14,-0.27 0.29,-0.27 0.31,0 0.37,0.25 0.45,0.57 0.14,0.56 0.51,2.01 0.6,2.4 0.03,0.13 0.56,1.33 1.64,1.33 0.43,0 0.54,-0.34 0.54,-0.7 0,-0.57 -0.42,-1.7 -0.62,-2.23 -0.09,-0.24 -0.13,-0.35 -0.13,-0.55 0,-0.47 0.35,-0.82 0.82,-0.82 0.94,0 1.31,1.46 1.31,1.54 0,0.1 -0.09,0.1 -0.12,0.1 -0.1,0 -0.1,-0.03 -0.15,-0.18 -0.15,-0.53 -0.47,-1.24 -1.02,-1.24 -0.17,0 -0.24,0.1 -0.24,0.33 0,0.25 0.09,0.49 0.18,0.71 0.19,0.52 0.61,1.62 0.61,2.19 0,0.65 -0.4,1.07 -1.15,1.07 -0.74,0 -1.25,-0.44 -1.62,-0.97 -0.01,0.13 -0.04,0.47 -0.32,0.71 -0.25,0.21 -0.57,0.26 -0.82,0.26 -0.89,0 -1.38,-0.64 -1.55,-0.87 -0.05,0.57 -0.47,0.87 -0.92,0.87 -0.46,0 -0.64,-0.39 -0.73,-0.57 -0.18,-0.35 -0.31,-0.94 -0.31,-0.97 0,-0.1 0.1,-0.1 0.12,-0.1 0.1,0 0.11,0.01 0.16,0.23 0.18,0.71 0.37,1.19 0.73,1.19 0.16,0 0.31,-0.08 0.31,-0.46 0,-0.21 -0.03,-0.32 -0.16,-0.84 z"
         id="path7796" /><path
         style="fill:#000000;stroke-width:0"
         inkscape:connector-curvature="0"
         d="m 373.45,659.52 h 2.78 c 0.14,0 0.33,0 0.33,0.2 0,0.2 -0.19,0.2 -0.33,0.2 h -2.78 v 2.79 c 0,0.14 0,0.33 -0.2,0.33 -0.2,0 -0.2,-0.19 -0.2,-0.33 v -2.79 h -2.79 c -0.14,0 -0.33,0 -0.33,-0.2 0,-0.2 0.19,-0.2 0.33,-0.2 h 2.79 v -2.79 c 0,-0.14 0,-0.32 0.2,-0.32 0.2,0 0.2,0.18 0.2,0.32 z"
         id="path7798" /><path
         style="fill:#000000;stroke-width:0"
         inkscape:connector-curvature="0"
         d="m 384.18,661.03 v 0 0.01 0.01 0 l 0.01,0.01 v 0.02 0.01 l 0.01,0.01 v 0 0.01 0.01 0.01 l 0.01,0.01 v 0 0.01 0.01 0 0.01 0 0.01 0.01 0 l 0.01,0.01 v 0.01 0.01 0.01 0.01 0 0.01 0.01 c 0,0.18 -0.14,0.27 -0.29,0.27 -0.1,0 -0.26,-0.06 -0.35,-0.21 -0.02,-0.05 -0.1,-0.36 -0.14,-0.54 -0.07,-0.26 -0.14,-0.53 -0.2,-0.8 l -0.45,-1.79 c -0.04,-0.15 -0.47,-0.85 -1.12,-0.85 -0.51,0 -0.62,0.44 -0.62,0.81 0,0.46 0.17,1.07 0.51,1.95 0.16,0.41 0.2,0.52 0.2,0.72 0,0.45 -0.32,0.82 -0.82,0.82 -0.95,0 -1.32,-1.45 -1.32,-1.54 0,-0.1 0.1,-0.1 0.12,-0.1 0.1,0 0.11,0.02 0.16,0.18 0.27,0.94 0.67,1.24 1.01,1.24 0.08,0 0.25,0 0.25,-0.32 0,-0.25 -0.1,-0.51 -0.17,-0.7 -0.4,-1.06 -0.58,-1.62 -0.58,-2.09 0,-0.89 0.63,-1.19 1.22,-1.19 0.39,0 0.72,0.17 1,0.45 -0.13,-0.52 -0.25,-1 -0.65,-1.53 -0.25,-0.34 -0.63,-0.63 -1.09,-0.63 -0.14,0 -0.59,0.03 -0.76,0.42 0.16,0 0.29,0 0.43,0.12 0.1,0.09 0.2,0.22 0.2,0.41 0,0.3 -0.27,0.35 -0.37,0.35 -0.23,0 -0.56,-0.17 -0.56,-0.65 0,-0.5 0.44,-0.87 1.06,-0.87 1.03,0 2.05,0.91 2.33,2.03 z"
         id="path7800" /><path
         style="fill:#000000;stroke-width:0"
         inkscape:connector-curvature="0"
         d="m 387.82,657.97 v 0.14 0.13 l -0.01,0.13 -0.01,0.13 -0.01,0.13 -0.01,0.11 -0.02,0.12 -0.02,0.11 -0.03,0.11 -0.03,0.11 -0.03,0.1 -0.04,0.1 -0.04,0.1 -0.05,0.09 -0.05,0.1 -0.03,0.05 -0.03,0.04 c -0.21,0.32 -0.65,0.6 -1.2,0.6 -1.62,0 -1.62,-1.9 -1.62,-2.4 0,-0.51 0,-2.37 1.62,-2.37 v 0.2 c -0.32,0 -0.75,0.18 -0.89,0.76 -0.1,0.41 -0.1,0.98 -0.1,1.49 0,0.51 0,1.04 0.11,1.43 0.14,0.55 0.59,0.69 0.88,0.69 0.37,0 0.74,-0.22 0.86,-0.63 0.11,-0.38 0.12,-0.88 0.12,-1.49 0,-0.51 0,-1.03 -0.09,-1.47 -0.14,-0.63 -0.62,-0.78 -0.89,-0.78 v 0 -0.2 c 1.61,0 1.61,1.86 1.61,2.37 z"
         id="path7802" /></g>    <g
       ns0:preamble=""
       ns0:text="$(x_0, y_0)$"
       word-spacing="normal"
       letter-spacing="normal"
       font-size-adjust="none"
       font-stretch="normal"
       font-weight="normal"
       font-variant="normal"
       font-style="normal"
       stroke-miterlimit="10.433"
       xml:space="preserve"
       transform="matrix(0.75,0,0,-0.75,-120.32887,546.43601)"
       id="g8610"
       style="font-style:normal;font-variant:normal;font-weight:normal;font-stretch:normal;letter-spacing:normal;word-spacing:normal;text-anchor:start;fill:none;fill-opacity:1;fill-rule:evenodd;stroke:#000000;stroke-linecap:butt;stroke-linejoin:miter;stroke-miterlimit:10.43299961;stroke-dasharray:none;stroke-dashoffset:0;stroke-opacity:1"><path
         id="path8596"
         d="m 226.73,654.84 v 0.01 0 0 0.01 0 0 0.01 h -0.01 v 0 0.01 0 0.01 h -0.01 v 0.01 h -0.01 v 0.01 l -0.01,0.01 v 0 0.01 h -0.01 v 0.01 0 l -0.01,0.01 v 0 h -0.01 v 0.01 h -0.01 v 0.01 h -0.01 v 0.01 l -0.01,0.01 v 0 l -0.01,0.01 v 0 l -0.01,0.01 -0.01,0.01 v 0 l -0.01,0.01 -0.01,0.01 v 0.01 h -0.01 l -0.01,0.01 c -1.24,1.26 -1.56,3.14 -1.56,4.66 0,1.74 0.38,3.47 1.6,4.71 0.13,0.12 0.13,0.15 0.13,0.17 0,0.07 -0.04,0.1 -0.1,0.1 -0.1,0 -1,-0.67 -1.58,-1.94 -0.51,-1.09 -0.63,-2.2 -0.63,-3.04 0,-0.77 0.11,-1.98 0.66,-3.11 0.59,-1.22 1.45,-1.87 1.55,-1.87 0.06,0 0.1,0.03 0.1,0.1 z"
         inkscape:connector-curvature="0"
         style="fill:#000000;stroke-width:0" /><path
         id="path8598"
         d="m 230.63,660.24 0.01,0.03 v 0.03 l 0.01,0.03 0.01,0.04 0.01,0.03 0.01,0.05 0.02,0.04 0.01,0.04 0.02,0.05 0.01,0.05 0.02,0.05 0.02,0.05 0.03,0.05 0.02,0.05 0.03,0.05 0.02,0.05 0.03,0.04 0.03,0.05 0.04,0.05 0.03,0.04 0.04,0.05 0.04,0.04 0.04,0.03 0.05,0.04 0.04,0.03 0.05,0.03 0.03,0.01 0.02,0.02 0.03,0.01 0.03,0.01 0.02,0.01 h 0.03 l 0.03,0.01 0.03,0.01 h 0.03 0.03 l 0.03,0.01 h 0.04 c 0.05,0 0.28,0 0.49,-0.13 -0.27,-0.05 -0.47,-0.3 -0.47,-0.54 0,-0.16 0.11,-0.35 0.37,-0.35 0.22,0 0.54,0.18 0.54,0.58 0,0.52 -0.59,0.66 -0.92,0.66 -0.58,0 -0.93,-0.53 -1.05,-0.76 -0.25,0.66 -0.79,0.76 -1.08,0.76 -1.03,0 -1.6,-1.29 -1.6,-1.54 0,-0.1 0.1,-0.1 0.12,-0.1 0.08,0 0.11,0.02 0.13,0.11 0.34,1.06 1,1.31 1.33,1.31 0.19,0 0.54,-0.09 0.54,-0.67 0,-0.31 -0.17,-0.98 -0.54,-2.37 -0.16,-0.62 -0.5,-1.04 -0.94,-1.04 -0.06,0 -0.29,0 -0.5,0.13 0.25,0.05 0.47,0.26 0.47,0.54 0,0.27 -0.22,0.35 -0.37,0.35 -0.3,0 -0.55,-0.26 -0.55,-0.58 0,-0.46 0.5,-0.66 0.94,-0.66 0.65,0 1.01,0.7 1.04,0.76 0.12,-0.37 0.48,-0.76 1.08,-0.76 1.03,0 1.59,1.29 1.59,1.54 0,0.1 -0.09,0.1 -0.12,0.1 -0.08,0 -0.11,-0.04 -0.13,-0.11 -0.32,-1.07 -1,-1.31 -1.32,-1.31 -0.39,0 -0.55,0.32 -0.55,0.66 0,0.22 0.06,0.44 0.17,0.88 z"
         inkscape:connector-curvature="0"
         style="fill:#000000;stroke-width:0" /><path
         id="path8600"
         d="m 236.6,657.97 v 0.14 0.13 l -0.01,0.13 -0.01,0.13 -0.01,0.13 -0.01,0.11 -0.02,0.12 -0.02,0.11 -0.03,0.11 -0.03,0.11 -0.03,0.1 -0.04,0.1 -0.04,0.1 -0.05,0.09 -0.05,0.1 -0.03,0.05 -0.03,0.04 c -0.22,0.32 -0.65,0.6 -1.21,0.6 -1.61,0 -1.61,-1.9 -1.61,-2.4 0,-0.51 0,-2.37 1.61,-2.37 v 0.2 c -0.32,0 -0.74,0.18 -0.88,0.76 -0.1,0.41 -0.1,0.98 -0.1,1.49 0,0.51 0,1.04 0.1,1.43 0.15,0.55 0.6,0.69 0.88,0.69 0.38,0 0.74,-0.22 0.87,-0.63 0.11,-0.38 0.12,-0.88 0.12,-1.49 0,-0.51 0,-1.03 -0.09,-1.47 -0.14,-0.63 -0.62,-0.78 -0.9,-0.78 v 0 -0.2 c 1.62,0 1.62,1.86 1.62,2.37 z"
         inkscape:connector-curvature="0"
         style="fill:#000000;stroke-width:0" /><path
         id="path8602"
         d="m 239.49,657.24 v 0.06 0.06 0.06 l -0.01,0.06 v 0.05 l -0.01,0.05 -0.01,0.05 -0.01,0.05 -0.01,0.05 -0.01,0.05 -0.02,0.04 -0.01,0.04 -0.02,0.04 -0.02,0.04 -0.02,0.04 -0.02,0.03 -0.02,0.03 -0.02,0.04 -0.03,0.02 -0.02,0.03 -0.03,0.03 -0.02,0.02 -0.03,0.02 -0.03,0.02 -0.03,0.01 -0.03,0.02 -0.03,0.01 -0.03,0.01 -0.04,0.01 h -0.03 l -0.04,0.01 h -0.03 c -0.33,0 -0.53,-0.25 -0.53,-0.53 0,-0.27 0.2,-0.53 0.53,-0.53 0.12,0 0.25,0.04 0.35,0.13 0.03,0.02 0.04,0.03 0.05,0.03 0.01,0 0.02,-0.01 0.02,-0.15 0,-0.73 -0.35,-1.33 -0.68,-1.66 -0.11,-0.11 -0.11,-0.13 -0.11,-0.16 0,-0.07 0.05,-0.11 0.1,-0.11 0.11,0 0.9,0.77 0.9,1.93 z"
         inkscape:connector-curvature="0"
         style="fill:#000000;stroke-width:0" /><path
         id="path8604"
         d="m 246.75,661.03 v 0 0.01 0.01 0 l 0.01,0.01 v 0.02 0.01 l 0.01,0.01 v 0 0.01 0.01 0.01 l 0.01,0.01 v 0 0.01 0.01 0 0.01 0 0.01 0.01 0 l 0.01,0.01 v 0.01 0.01 0.01 0.01 0 0.01 0.01 c 0,0.18 -0.14,0.27 -0.29,0.27 -0.1,0 -0.26,-0.06 -0.35,-0.21 -0.02,-0.05 -0.1,-0.36 -0.14,-0.54 -0.07,-0.26 -0.14,-0.53 -0.2,-0.8 l -0.45,-1.79 c -0.04,-0.15 -0.47,-0.85 -1.12,-0.85 -0.51,0 -0.62,0.44 -0.62,0.81 0,0.46 0.17,1.07 0.51,1.95 0.16,0.41 0.2,0.52 0.2,0.72 0,0.45 -0.32,0.82 -0.82,0.82 -0.95,0 -1.32,-1.45 -1.32,-1.54 0,-0.1 0.1,-0.1 0.12,-0.1 0.1,0 0.11,0.02 0.16,0.18 0.27,0.94 0.67,1.24 1.01,1.24 0.08,0 0.25,0 0.25,-0.32 0,-0.25 -0.1,-0.51 -0.17,-0.7 -0.4,-1.06 -0.58,-1.62 -0.58,-2.09 0,-0.89 0.63,-1.19 1.22,-1.19 0.39,0 0.72,0.17 1,0.45 -0.13,-0.52 -0.25,-1 -0.65,-1.53 -0.25,-0.34 -0.63,-0.63 -1.09,-0.63 -0.14,0 -0.59,0.03 -0.76,0.42 0.16,0 0.29,0 0.43,0.12 0.1,0.09 0.2,0.22 0.2,0.41 0,0.3 -0.27,0.35 -0.37,0.35 -0.23,0 -0.56,-0.17 -0.56,-0.65 0,-0.5 0.44,-0.87 1.06,-0.87 1.03,0 2.05,0.91 2.33,2.03 z"
         inkscape:connector-curvature="0"
         style="fill:#000000;stroke-width:0" /><path
         id="path8606"
         d="m 250.38,657.97 v 0.14 l -0.01,0.13 v 0.13 l -0.01,0.13 -0.01,0.13 -0.02,0.11 -0.02,0.12 -0.02,0.11 -0.02,0.11 -0.03,0.11 -0.04,0.1 -0.03,0.1 -0.05,0.1 -0.04,0.09 -0.06,0.1 -0.02,0.05 -0.03,0.04 c -0.22,0.32 -0.65,0.6 -1.21,0.6 -1.62,0 -1.62,-1.9 -1.62,-2.4 0,-0.51 0,-2.37 1.62,-2.37 v 0.2 c -0.32,0 -0.75,0.18 -0.88,0.76 -0.1,0.41 -0.1,0.98 -0.1,1.49 0,0.51 0,1.04 0.1,1.43 0.15,0.55 0.6,0.69 0.88,0.69 0.38,0 0.74,-0.22 0.86,-0.63 0.12,-0.38 0.12,-0.88 0.12,-1.49 0,-0.51 0,-1.03 -0.09,-1.47 -0.14,-0.63 -0.61,-0.78 -0.89,-0.78 v 0 -0.2 c 1.62,0 1.62,1.86 1.62,2.37 z"
         inkscape:connector-curvature="0"
         style="fill:#000000;stroke-width:0" /><path
         id="path8608"
         d="m 254.13,659.72 v 0.08 0.07 0.08 l -0.01,0.08 v 0.17 l -0.02,0.18 -0.01,0.18 -0.02,0.19 -0.03,0.2 -0.03,0.2 -0.04,0.2 -0.05,0.21 -0.05,0.21 -0.06,0.21 -0.07,0.21 -0.08,0.22 -0.05,0.1 -0.04,0.11 -0.05,0.11 -0.05,0.1 c -0.6,1.23 -1.45,1.87 -1.55,1.87 -0.06,0 -0.1,-0.04 -0.1,-0.1 0,-0.02 0,-0.05 0.19,-0.22 0.97,-0.99 1.54,-2.58 1.54,-4.66 0,-1.7 -0.37,-3.45 -1.6,-4.71 -0.13,-0.12 -0.13,-0.14 -0.13,-0.17 0,-0.06 0.04,-0.1 0.1,-0.1 0.1,0 0.99,0.68 1.58,1.94 0.51,1.1 0.63,2.21 0.63,3.04 z"
         inkscape:connector-curvature="0"
         style="fill:#000000;stroke-width:0" /></g>  </g>
</svg>
